<svg width="21" height="20" viewBox="0 0 21 20" fill="none" xmlns="http://www.w3.org/2000/svg">
<path d="M7.4834 9.99909L9.49173 12.0158L13.5167 7.98242" stroke="white" stroke-width="1.5" stroke-linecap="round" stroke-linejoin="round"/>
<path d="M4.0334 5.16706C4.0334 4.28372 4.7584 3.55872 5.64173 3.55872H7.0834C7.41673 3.55872 7.8834 3.38372 8.1334 3.17539L9.45006 2.05039C10.0334 1.55872 10.9751 1.55872 11.5417 2.05039L12.8584 3.17539C13.1084 3.38372 13.5834 3.55872 13.9167 3.55872H15.3334C16.2167 3.55872 16.9417 4.28372 16.9417 5.16706V6.58372C16.9417 6.91706 17.1167 7.38372 17.3251 7.63372L18.4501 8.95039C18.9417 9.53372 18.9417 10.4754 18.4501 11.0421L17.3251 12.3587C17.1167 12.6087 16.9417 13.0754 16.9417 13.4087V14.8254C16.9417 15.7087 16.2167 16.4337 15.3334 16.4337H13.9167C13.5834 16.4337 13.1167 16.6087 12.8667 16.8171L11.5501 17.9421C10.9667 18.4337 10.0251 18.4337 9.4584 17.9421L8.14173 16.8171C7.89173 16.6087 7.41673 16.4337 7.09173 16.4337H5.64173C4.7584 16.4337 4.0334 15.7087 4.0334 14.8254V13.4004C4.0334 13.0754 3.86673 12.6004 3.6584 12.3587L2.5334 11.0337C2.05007 10.4587 2.05007 9.52539 2.5334 8.95039L3.00007 8.40039" stroke="white" stroke-width="1.5" stroke-linecap="round" stroke-linejoin="round"/>
</svg>
