<svg width="20" height="20" viewBox="0 0 20 20" fill="none" xmlns="http://www.w3.org/2000/svg">
<path d="M1.66699 10.8263V12.5013C1.66699 16.668 3.33366 18.3346 7.50033 18.3346H12.5003C16.667 18.3346 18.3337 16.668 18.3337 12.5013V7.5013C18.3337 3.33464 16.667 1.66797 12.5003 1.66797H7.50033C3.33366 1.66797 1.66699 3.33464 1.66699 7.5013" stroke="white" stroke-width="1.5" stroke-linecap="round" stroke-linejoin="round"/>
<path d="M9.16634 6.66667C9.16634 7.58333 8.41634 8.33333 7.49967 8.33333C6.58301 8.33333 5.83301 7.58333 5.83301 6.66667C5.83301 5.75 6.58301 5 7.49967 5" stroke="white" stroke-width="1.5" stroke-linecap="round" stroke-linejoin="round"/>
<path d="M2.22461 15.7918L6.33294 13.0335C6.99128 12.5918 7.94128 12.6418 8.53294 13.1501L8.80794 13.3918C9.45794 13.9501 10.5079 13.9501 11.1579 13.3918L14.6246 10.4168C15.2746 9.85846 16.3246 9.85846 16.9746 10.4168L18.3329 11.5835" stroke="white" stroke-width="1.5" stroke-linecap="round" stroke-linejoin="round"/>
</svg>
